# xmcd
#
# Track frame offsets: 
#        150
#        10289
#        20754
#        32106
#        44267
#        54551
#        67312
#        79313
#        90665
#        100652
#        113191
#        125152
#        137182
#        148599
#        160884
#        172559
#        182332
#        193053
#        206055
#        219119
#        231212
#        243320
#        252370
#        262072
#        272917
#        284116
#        294067
#        304863
#        315674
#        326630
#
# Disc length: 4496 seconds
#
# Revision: 0
# Processed by: cddbd v1.5.1PL0 Copyright (c) Steve Scherf et al.
# Submitted via: ExactAudioCopy v0.95a4
#
DISCID=c4118e1e
DTITLE=Bill Monroe - Bluegrass 1950-1958 Disk 3
DYEAR=1900
DGENRE=Bluegrass
TTITLE0=Sitting Alone in the Moonlight
TTITLE1=Plant Some Flowers on My Grave
TTITLE2=Changing Partners
TTITLE3=Y'all Come
TTITLE4=On and On
TTITLE5=I Believed in You Darling
TTITLE6=New John Henry Blues
TTITLE7=White House Blues
TTITLE8=Happy on My Way
TTITLE9=I'm Working on a Building
TTITLE10=A Voice from on High
TTITLE11=He Will Set Your Fields on Fire
TTITLE12=Close By
TTITLE13=My Little Georgia Rose
TTITLE14=Put My Little Shoes Away
TTITLE15=Blue Moon of Kentucky
TTITLE16=Wheel Hoss [Instrumental]
TTITLE17=Cheyenne [Instrumental]
TTITLE18=You'll Find Her Name Written There
TTITLE19=Roanoke [Instrumental]
TTITLE20=Wait a Little Longer Please Jesus
TTITLE21=Let the Light Shine Down on Me
TTITLE22=Used to Be
TTITLE23=Tall Timber [Instrumental]
TTITLE24=Brown County Breakdown [Instrumental]
TTITLE25=A Fallen Star
TTITLE26=Four Walls
TTITLE27=A Good Woman's Love
TTITLE28=Cry, Cry Darling
TTITLE29=I'm Sitting on Top of the World
EXTD=
EXTT0=
EXTT1=
EXTT2=
EXTT3=
EXTT4=
EXTT5=
EXTT6=
EXTT7=
EXTT8=
EXTT9=
EXTT10=
EXTT11=
EXTT12=
EXTT13=
EXTT14=
EXTT15=
EXTT16=
EXTT17=
EXTT18=
EXTT19=
EXTT20=
EXTT21=
EXTT22=
EXTT23=
EXTT24=
EXTT25=
EXTT26=
EXTT27=
EXTT28=
EXTT29=
PLAYORDER=
